<svg xmlns="http://www.w3.org/2000/svg" viewBox="0 0 157.58 135.86"><defs><style>.cls-1{fill:#343c57;}.cls-2{fill:#01ada4;}</style></defs><title>Duo-Dark</title><g id="Layer_2" data-name="Layer 2"><g id="Layer_1-2" data-name="Layer 1"><path class="cls-1" d="M109.31,55.76a12.8,12.8,0,0,1-2.19-7.16,12.83,12.83,0,1,1,21.15,9.72l14.2-1.43c.14-.38.28-.76.4-1.15A23.84,23.84,0,0,0,144,48.6a24,24,0,0,0-16.88-22.94,24.1,24.1,0,0,0-16.49.81A23.09,23.09,0,0,0,107,28.34V5.15A5.15,5.15,0,0,0,100.92.09l-5.08,1V61.61l17.88-1.81A12.85,12.85,0,0,1,109.31,55.76Z"/><path class="cls-1" d="M30.83,58.39H29.21a13.41,13.41,0,0,0-5,.93c-1,.4-1.95.82-2.9,1.28V54.48h0V31.54a7,7,0,0,0-7-7H10.7V82.09a46.14,46.14,0,0,1,10.6-8.92c4.7-2.87,12.57-4.78,18.25-5.82C39,64,34.69,58.5,30.83,58.39Z"/><path class="cls-2" d="M90.59,90.91A12.63,12.63,0,0,0,85,86.33a12.44,12.44,0,0,0-4.91-1,12.91,12.91,0,0,0-3.76.56,12.68,12.68,0,0,0-8.3,15.82,12.62,12.62,0,0,0,12.06,8.87,12.53,12.53,0,0,0,3.76-.57,12.71,12.71,0,0,0,3.3-1.58,12.88,12.88,0,0,0,4.58-5.56,12.71,12.71,0,0,0,1-4.92,12.55,12.55,0,0,0-2.16-7Z"/><path class="cls-2" d="M19.27,93.05a12.48,12.48,0,0,0-1,4.91A12.44,12.44,0,0,0,20.43,105a12.6,12.6,0,0,0,10.47,5.57,12.53,12.53,0,0,0,3.76-.57A12.6,12.6,0,0,0,43.53,98,12.47,12.47,0,0,0,43,94.21a12.28,12.28,0,0,0-1.59-3.3,12.63,12.63,0,0,0-5.56-4.58,12.44,12.44,0,0,0-4.91-1,12.79,12.79,0,0,0-3.75.56,12.69,12.69,0,0,0-7.88,7.15Z"/><path class="cls-2" d="M122.82,120.56a23.66,23.66,0,0,1-15.56-29.63,23.36,23.36,0,0,1,3-6.2A23.6,23.6,0,0,1,129.85,74.3a23.64,23.64,0,0,1,13.24,4,23.74,23.74,0,0,1,8.56,10.4A23.46,23.46,0,0,1,153.51,98v.12a46.09,46.09,0,0,0,2.33-31.49,7,7,0,0,0-7.43-5L78.79,68.64h0l-37.5,3.8a45.91,45.91,0,0,0-9.24,1.91,23.25,23.25,0,0,1,12.08,4A23.71,23.71,0,0,1,53.5,105a24.14,24.14,0,0,1-3,6.2,22.92,22.92,0,0,1-1.67,2.15h0L41,126.85a9.35,9.35,0,0,1-6.32,4.47L24.9,133.2l-.31-.18,6.68-11.41h-.5A23.65,23.65,0,0,1,7.92,92.34,46,46,0,0,0,2,131.75a5.73,5.73,0,0,0,6.06,4.08l70.7-7.16h0l37.5-3.81a45.58,45.58,0,0,0,13-3.26A24,24,0,0,1,122.82,120.56ZM102.72,105a24.14,24.14,0,0,1-3,6.2A23.66,23.66,0,0,1,56.46,98a23.74,23.74,0,0,1,4-13.23,23.84,23.84,0,0,1,10.41-8.57,23.69,23.69,0,0,1,16.24-.79,23.21,23.21,0,0,1,6.2,3A23.71,23.71,0,0,1,102.72,105Z"/><path class="cls-2" d="M141.49,102.88a12.68,12.68,0,0,0,.42-8.67,12.25,12.25,0,0,0-1.58-3.3,12.69,12.69,0,0,0-5.56-4.58,12.53,12.53,0,0,0-4.92-1,12.44,12.44,0,0,0-7,2.15,12.63,12.63,0,0,0-4.58,5.56,12.66,12.66,0,0,0,1.16,12,12.6,12.6,0,0,0,10.47,5.57,12.53,12.53,0,0,0,3.76-.57,12.61,12.61,0,0,0,7.88-7.14Z"/><path class="cls-1" d="M80.38,25.34a2.94,2.94,0,0,0-2.94,2.94,24.26,24.26,0,0,0-5.68-2.62,24.1,24.1,0,0,0-16.49.81,24,24,0,0,0-6.75,39.94l30.27-3.07h0l9.85-1v-37ZM76.43,53.58a12.84,12.84,0,0,1-4.65,5.65,12.89,12.89,0,0,1-12.15,1.18A12.77,12.77,0,0,1,51.81,48.6a12.67,12.67,0,0,1,1-5A12.88,12.88,0,0,1,57.46,38a12.66,12.66,0,0,1,3.35-1.62,12.83,12.83,0,0,1,16,8.43,12.82,12.82,0,0,1-.43,8.8Z"/></g></g></svg>